<svg xmlns="http://www.w3.org/2000/svg" viewBox="0 0 512 512">
  <defs>
    <linearGradient id="bg" x1="0%" y1="0%" x2="100%" y2="100%">
      <stop offset="0%" stop-color="#0f172a" />
      <stop offset="100%" stop-color="#1e3a8a" />
    </linearGradient>
    <linearGradient id="blade" x1="0%" y1="0%" x2="100%" y2="100%">
      <stop offset="0%" stop-color="#60a5fa" />
      <stop offset="100%" stop-color="#2563eb" />
    </linearGradient>
  </defs>
  <rect width="512" height="512" rx="100" fill="url(#bg)" />
  <circle cx="256" cy="256" r="200" fill="none" stroke="#3b82f6" stroke-width="12" stroke-dasharray="24 12" />
  <g transform="translate(256, 256)">
    <path d="M 0,-160 C 40,-160 80,-80 30,-20 C -20,20 -40,-40 0,-160 Z" fill="url(#blade)" />
    <path d="M 0,-160 C 40,-160 80,-80 30,-20 C -20,20 -40,-40 0,-160 Z" fill="url(#blade)" transform="rotate(72)" />
    <path d="M 0,-160 C 40,-160 80,-80 30,-20 C -20,20 -40,-40 0,-160 Z" fill="url(#blade)" transform="rotate(144)" />
    <path d="M 0,-160 C 40,-160 80,-80 30,-20 C -20,20 -40,-40 0,-160 Z" fill="url(#blade)" transform="rotate(216)" />
    <path d="M 0,-160 C 40,-160 80,-80 30,-20 C -20,20 -40,-40 0,-160 Z" fill="url(#blade)" transform="rotate(288)" />
    <circle cx="0" cy="0" r="42" fill="#1d4ed8" stroke="#ffffff" stroke-width="8" />
    <circle cx="0" cy="0" r="14" fill="#ffffff" />
  </g>
</svg>